# xmcd
#
# Track frame offsets: 
#        150
#        17405
#        31639
#        45305
#        59020
#        70704
#        82987
#        94096
#        107954
#        122695
#        132991
#        145624
#        158130
#        172066
#        184213
#        194913
#        206472
#        220016
#        234802
#        248317
#        261654
#        270410
#        282128
#        296364
#        311442
#
# Disc length: 4361 seconds
#
# Revision: 0
# Processed by: cddbd v1.5.2PL0 Copyright (c) Steve Scherf et al.
# Submitted via: ExactAudioCopy v1.1
#
DISCID=5c110719
DTITLE=Olika - The Best of the Blues
DYEAR=1900
DGENRE=Blues
TTITLE0=Can't Stand Your Evil Ways - Otis Spann
TTITLE1=Sally Mae - John Lee Hooker
TTITLE2=This Love of Mine - Ray Charles
TTITLE3=Three O'Clock Blues - B B King
TTITLE4=Let the Good Times Roll Creole - Memphis Slim
TTITLE5=Dog Me Around - Howlin' Wolf
TTITLE6=Walking Blues - Robert Johnson
TTITLE7=Last Time Blues - Charlie McCoy
TTITLE8=Evil Devil Blues - Memphis Minnie
TTITLE9=John Henry - Leadbelly
TTITLE10=Tiger Man - Rufus Thomas
TTITLE11=Pinetop's Boogie Woogie - Pinetop Perkins
TTITLE12=Cannon Ball Blues - Furry Lewis
TTITLE13=Way Back Home - Big Maybelle
TTITLE14=Mystery Train - Little Junior Parker
TTITLE15=Mardi Gras Blues - Big Joe Turner
TTITLE16=Wandering Blues - John Lee Hooker
TTITLE17=Married Man Blues - Blind Willie Reynolds
TTITLE18=Big Bill Blues - Big Bill Broonzy
TTITLE19=The Girl I Love She Got Long Curly Hair - Sleepy John Estes
TTITLE20=Country Farm Blues - William Stewart
TTITLE21=Lookin' For My Baby - Little Milton
TTITLE22=The Panama Limited - Bukka White
TTITLE23=Empty Bed Blues - Bessie Smith
TTITLE24=Baby, Whats Wrong With You? - Mississippi John Hurt
EXTD=
EXTT0=
EXTT1=
EXTT2=
EXTT3=
EXTT4=
EXTT5=
EXTT6=
EXTT7=
EXTT8=
EXTT9=
EXTT10=
EXTT11=
EXTT12=
EXTT13=
EXTT14=
EXTT15=
EXTT16=
EXTT17=
EXTT18=
EXTT19=
EXTT20=
EXTT21=
EXTT22=
EXTT23=
EXTT24=
PLAYORDER=
